PathFileType	3	(X/Y/Z)	D:\minhoCalibration\240510\subject2_KPNP\preferred\preferred13.trc
DataRate	CameraRate	NumFrames	NumMarkers	Units	OrigDataRate	OrigDataStartFrame	OrigNumFrames
200.0	200.0	21	10	mm	200.0	417	213	
Frame#	Time	Left_Ankle_Outer1			Left_Ankle_Inner1			Left_Knee_Outer1			Left_Knee_Inner1			Left_Wrist1			Right_Wrist1			Right_Knee_Inner1			Right_Knee_Outer1			Right_Ankle_Inner1			Right_Ankle_Outer1			
		X1	Y1	Z1	X2	Y2	Z2	X3	Y3	Z3	X4	Y4	Z4	X5	Y5	Z5	X6	Y6	Z6	X7	Y7	Z7	X8	Y8	Z8	X9	Y9	Z9	X10	Y10	Z10	
417	2.075	-664.18994	112.53268	-771.25726	-680.88593	112.19238	-716.66101	-492.54086	535.29694	-725.8999	-568.69592	511.58966	-654.57928	-638.45306	939.53992	-838.16437	-954.59332	966.85028	-953.4845	-962.55164	455.94095	-979.27649	-1022.2543	500.33487	-1037.0813	-941.84137	88.240974	-1134.6112	-1011.2388	110.68004	-1202.2653
418	2.08	-667.49542	109.92216	-767.38538	-682.98254	109.67323	-712.58087	-492.01245	531.35852	-726.05786	-567.7276	508.60245	-653.90106	-635.88745	937.85724	-836.6463	-952.70081	966.16144	-950.73676	-968.49622	458.27588	-967.63153	-1023.0679	499.92923	-1033.6069	-942.95203	88.111176	-1133.9495	-1011.1847	111.43389	-1201.5741
419	2.085	-670.60883	107.30326	-764.815	-685.22736	107.11023	-709.87085	-491.52765	527.60681	-725.73267	-567.01025	505.51767	-653.41852	-633.27338	936.16943	-835.13403	-951.505	965.37915	-945.97791	-966.11432	451.08417	-979.78802	-1024.5905	499.43076	-1028.6593	-940.16687	89.395294	-1133.4996	-1011.2395	112.31232	-1200.5514
420	2.09	-672.86047	104.80716	-763.64825	-687.40643	104.54554	-708.61877	-491.20541	524.01526	-724.79388	-566.35535	503.79132	-651.43768	-630.52979	934.48169	-833.76941	-949.75574	964.34344	-940.93878	-975.44977	457.16849	-963.34473	-1024.7167	499.47879	-1026.4182	-942.56494	89.348969	-1132.3464	-1011.1395	113.45985	-1199.6396
421	2.095	-674.52112	101.84064	-763.10828	-689.388	101.91694	-708.47449	-491.09018	520.67419	-723.53625	-566.48706	500.27509	-651.51263	-627.67432	932.88507	-832.44128	-948.04486	963.15637	-935.70636	-973.37726	458.20483	-958.32532	-1027.2389	498.7276	-1019.9952	-944.03186	90.214226	-1130.92	-1011.0645	114.88045	-1198.5815
422	2.1	-675.48468	99.498688	-764.30066	-690.99677	99.123192	-709.16443	-491.11453	517.53235	-721.95148	-566.8689	497.8378	-650.09583	-624.77875	931.29431	-831.21606	-946.24969	962.92731	-932.78125	-973.95117	456.19675	-950.66711	-1027.6547	498.86423	-1016.7098	-943.80823	91.337021	-1130.0308	-1011.0007	116.12096	-1197.2946
423	2.105	-675.97681	96.455894	-765.61298	-692.16119	96.059021	-710.62878	-491.45544	514.62561	-720.08093	-567.37823	495.561	-648.4632	-621.68182	929.79242	-830.07025	-944.55115	961.3714	-924.87579	-975.92499	456.71796	-949.07983	-1029.86	498.18124	-1010.5703	-942.18036	92.797295	-1128.733	-1010.9827	117.97292	-1196.0493
424	2.11	-675.86719	93.35096	-767.47723	-693.17688	93.164757	-712.26825	-491.83575	511.94501	-718.12445	-567.81799	493.13196	-647.68207	-618.46423	928.35535	-828.93799	-942.12946	960.62225	-918.60834	-977.74042	455.29153	-944.30035	-1031.751	498.00458	-1004.4565	-941.73505	93.657158	-1127.7534	-1010.8017	120.17162	-1194.5326
425	2.115	-675.91614	90.843323	-769.19006	-694.23676	90.756706	-713.95917	-492.0787	509.36984	-716.17987	-568.97125	490.29364	-646.71796	-615.10925	927.03052	-827.87817	-939.97394	960.18036	-914.70923	-977.73981	453.83029	-935.92535	-1033.4923	497.89355	-998.15741	-944.54742	95.582359	-1125.6349	-1010.5451	122.971	-1192.9299
426	2.12	-676.44885	88.988525	-770.4162	-695.03387	88.566498	-716.01752	-491.5239	507.09998	-714.17804	-570.0412	487.77625	-645.48108	-611.57214	925.85254	-826.87769	-938.00848	959.49213	-908.40295	-975.45081	448.29617	-935.03888	-1035.9159	497.75693	-991.49176	-944.74402	97.804337	-1123.8284	-1010.0683	126.45282	-1191.2032
427	2.125	-677.1001	88.342255	-770.98975	-696.40961	88.569763	-715.90088	-490.14182	505.15054	-711.84424	-570.5213	485.60788	-644.26074	-607.94556	924.88605	-825.90997	-936.19165	959.35309	-901.5766	-982.31158	451.72205	-921.5083	-1037.7828	499.16367	-984.48145	-943.67328	100.46988	-1122.119	-1010.2932	129.46805	-1188.9794
428	2.13	-677.36487	88.720337	-771.0022	-696.96893	88.721153	-716.16492	-488.01956	503.82727	-708.87433	-569.8855	484.11545	-642.92334	-604.16901	924.20557	-824.97992	-933.86877	959.31787	-895.25916	-985.71564	456.10806	-899.58624	-1040.6984	499.88376	-975.72192	-944.35492	104.03477	-1119.6322	-1010.2408	133.38914	-1186.3998
429	2.135	-676.96198	89.299034	-770.58942	-696.72412	88.838341	-715.91339	-485.50821	503.09723	-705.61993	-568.4165	483.47482	-641.44476	-599.96472	923.66772	-824.45941	-931.43176	959.6062	-889.85413	-982.22833	447.68127	-912.22766	-1044.5646	500.91385	-965.36713	-944.8811	108.13674	-1116.3408	-1010.2864	138.17676	-1183.4252
430	2.14	-675.9046	89.701576	-770.15417	-695.90167	89.062683	-715.52795	-483.11063	502.83582	-702.52155	-566.52124	483.49768	-639.98853	-596.9386	923.37769	-823.42267	-928.52661	959.4212	-880.55688	-990.45813	452.53067	-896.26953	-1047.5054	502.47079	-956.42218	-944.96136	111.8971	-1113.7926	-1010.5262	143.6694	-1180.0039
431	2.145	-674.80585	89.521935	-769.19489	-695.0022	89.576553	-715.28473	-480.45148	503.1261	-699.88159	-564.4585	483.99048	-638.73145	-593.03412	923.50159	-822.68628	-926.01215	960.07513	-874.12622	-994.8913	455.23608	-888.39941	-1050.62	504.20279	-946.83252	-945.86603	117.4549	-1109.6941	-1011.212	149.73256	-1175.8549
432	2.15	-673.43597	90.630859	-769.88721	-694.10931	90.071892	-715.44458	-477.98825	503.50284	-697.85602	-562.24799	484.72418	-637.80371	-589.0293	923.97223	-822.01135	-923.14478	960.77576	-867.31152	-998.91858	458.24829	-862.3905	-1054.0703	505.84406	-934.58014	-946.45001	122.75205	-1105.8156	-1012.2528	156.22217	-1170.9415
433	2.155	-672.73474	90.876091	-770.19781	-693.48468	90.344543	-716.11102	-475.61316	503.99054	-696.65924	-559.78619	485.59421	-637.14069	-584.8623	924.79004	-821.24103	-919.80408	962.16553	-860.30859	-999.76074	456.58932	-864.39929	-1058.027	508.47675	-920.81909	-948.06213	128.41498	-1101.0768	-1013.9519	163.60913	-1165.885
434	2.16	-672.0976	90.928482	-770.90863	-693.00598	90.487976	-716.79413	-473.71866	504.1647	-696.30341	-556.86835	485.95462	-637.90063	-579.64673	926.0979	-820.61572	-916.16992	963.49255	-853.10034	-1002.4175	458.68484	-851.87433	-1060.4103	511.43878	-908.34869	-947.95734	135.53297	-1096.0116	-1015.7462	171.36743	-1159.5283
435	2.165	-671.50562	90.351479	-771.2951	-692.69489	90.542343	-717.638	-471.75558	504.01236	-696.85889	-554.00726	486.61948	-636.91473	-575.29425	927.71405	-819.76935	-912.24841	965.19867	-845.51624	-1004.784	461.46298	-838.4458	-1062.5676	514.6806	-895.09961	-950.14288	142.10512	-1090.405	-1018.0562	179.54973	-1152.2035
436	2.17	-671.25842	90.341248	-772.4165	-692.41827	90.405914	-718.53467	-469.98883	503.38376	-698.40784	-550.83514	486.255	-637.20325	-571.02557	929.50427	-818.90955	-908.07782	967.09894	-838.38568	-1006.3365	464.23096	-824.52045	-1065.0704	517.57733	-879.00623	-951.9082	149.17685	-1084.0146	-1020.9242	188.42871	-1144.2604
437	2.175	-670.94061	89.817902	-772.72601	-692.81836	90.792549	-717.99854	-468.13425	502.36737	-700.58331	-547.51569	485.2081	-637.96204	-566.45697	931.39178	-817.65881	-903.76477	969.16528	-831.46906	-1007.4432	467.49326	-809.12231	-1066.8365	521.46338	-862.87305	-956.07526	157.34192	-1075.8483	-1023.8397	197.84381	-1135.4727
